<svg fill="none" height="12" viewBox="0 0 13 12" width="13" xmlns="http://www.w3.org/2000/svg"><path d="M0.0996094 6.80002C0.0996094 6.3582 0.457782 6.00002 0.899609 6.00002H2.49961C2.94144 6.00002 3.29961 6.3582 3.29961 6.80002V10.8C3.29961 11.2419 2.94144 11.6 2.49961 11.6H0.899609C0.457782 11.6 0.0996094 11.2419 0.0996094 10.8V6.80002Z" fill="currentColor"></path><path d="M4.89961 3.60002C4.89961 3.1582 5.25778 2.80002 5.69961 2.80002H7.29961C7.74144 2.80002 8.09961 3.1582 8.09961 3.60002V10.8C8.09961 11.2419 7.74144 11.6 7.29961 11.6H5.69961C5.25778 11.6 4.89961 11.2419 4.89961 10.8V3.60002Z" fill="currentColor"></path><path d="M9.69961 1.20002C9.69961 0.758197 10.0578 0.400024 10.4996 0.400024H12.0996C12.5414 0.400024 12.8996 0.758197 12.8996 1.20002V10.8C12.8996 11.2419 12.5414 11.6 12.0996 11.6H10.4996C10.0578 11.6 9.69961 11.2419 9.69961 10.8V1.20002Z" fill="currentColor"></path></svg>