<svg width="16" height="16" viewBox="0 0 16 16" fill="none" xmlns="http://www.w3.org/2000/svg">
<g clip-path="url(#clip0_637_7031)">
<path d="M10.0353 2.21045H3.71932C3.44041 2.21133 3.17317 2.32252 2.97595 2.51974C2.77872 2.71696 2.66754 2.9842 2.66666 3.26312V10.6318H3.71932V3.26312H10.0353V2.21045ZM11.614 4.31578H5.82466C5.54574 4.31666 5.2785 4.42785 5.08128 4.62507C4.88406 4.8223 4.77287 5.08954 4.77199 5.36845V12.7364C4.77287 13.0154 4.88406 13.2826 5.08128 13.4798C5.2785 13.677 5.54574 13.7882 5.82466 13.7891H11.614C11.8929 13.7882 12.1601 13.677 12.3574 13.4798C12.5546 13.2826 12.6658 13.0154 12.6667 12.7364V5.36845C12.6658 5.08954 12.5546 4.8223 12.3574 4.62507C12.1601 4.42785 11.8929 4.31666 11.614 4.31578ZM11.614 12.7371H5.82466V5.36845H11.614V12.7371Z" fill="#EFC644"/>
</g>
<defs>
<clipPath id="clip0_637_7031">
<rect width="16" height="16" fill="white"/>
</clipPath>
</defs>
</svg>
