<svg id="coti" xmlns="http://www.w3.org/2000/svg" xmlns:xlink="http://www.w3.org/1999/xlink" width="36" height="12">
    <defs>
        <linearGradient id="linear-gradient" x1=".596" y1=".926" x2=".416" y2=".085" gradientUnits="objectBoundingBox">
            <stop offset="0" stop-color="#fff"/>
            <stop offset="1" stop-color="#fff" stop-opacity=".502"/>
        </linearGradient>
        <linearGradient id="linear-gradient-2" x1=".5" y1="0" x2=".5" y2="1" xlink:href="#linear-gradient"/>
        <style>
            .cls-1{fill:#fff}
        </style>
    </defs>
    <g id="Group_5717" data-name="Group 5717">
        <g id="Group_5716" data-name="Group 5716">
            <g id="Group_5709" data-name="Group 5709">
                <g id="Group_5708" data-name="Group 5708">
                    <path id="Path_3856" data-name="Path 3856" class="cls-1" d="M18.3 4a3.688 3.688 0 0 1 2.8 1.1l-.7 1a3 3 0 0 0-2.1-.9 2.548 2.548 0 0 0-2.6 2.7 2.548 2.548 0 0 0 2.6 2.7 3.342 3.342 0 0 0 2.3-1l.6 1.1a4.015 4.015 0 0 1-3 1.2 3.889 3.889 0 0 1-4-4A3.952 3.952 0 0 1 18.3 4z"/>
                </g>
            </g>
            <g id="Group_5711" data-name="Group 5711">
                <g id="Group_5710" data-name="Group 5710">
                    <path id="Path_3857" data-name="Path 3857" class="cls-1" d="M25.3 4a3.949 3.949 0 0 1 4 4 4 4 0 0 1-8 0 3.833 3.833 0 0 1 4-4zm0 6.7A2.606 2.606 0 0 0 27.9 8a2.6 2.6 0 1 0-5.2 0 2.548 2.548 0 0 0 2.6 2.7z"/>
                </g>
            </g>
            <g id="Group_5713" data-name="Group 5713">
                <g id="Group_5712" data-name="Group 5712">
                    <path id="Path_3858" data-name="Path 3858" class="cls-1" d="M30.2 5.5h-1V4.3h1V2.1h1.4v2.2h1.8v1.2h-1.8v3.4a1.687 1.687 0 0 0 1.9 1.7h.3v1.3h-.5A2.759 2.759 0 0 1 30.2 9V5.5z"/>
                </g>
            </g>
            <g id="Group_5715" data-name="Group 5715">
                <g id="Group_5714" data-name="Group 5714">
                    <path id="Path_3859" data-name="Path 3859" class="cls-1" d="M34.6 1.3H36v1.5h-1.4zm0 3H36v7.5h-1.4z"/>
                </g>
            </g>
        </g>
    </g>
    <path id="Path_3860" data-name="Path 3860" d="M.3 3.7A.265.265 0 0 0 0 4v4.7a.265.265 0 0 0 .3.3c2.2 0 4.9-2 7.1-3.6V0C5.2 1.6 2.5 3.8.3 3.7z" style="fill:url(#linear-gradient)"/>
    <path id="Path_3861" data-name="Path 3861" d="M11.9 5.9a.265.265 0 0 0 .3-.3V.9a.265.265 0 0 0-.3-.3C9.7.6 7 2.6 4.8 4.2v5.4C7 8 9.7 5.8 11.9 5.9z" style="fill:url(#linear-gradient-2)"/>
    <path id="Path_3862" data-name="Path 3862" class="cls-1" d="M7.4 5.4V2.3c-.9.6-1.8 1.3-2.6 1.9v3.1c.9-.6 1.8-1.3 2.6-1.9z"/>
</svg>
