<svg width="38" height="38" viewBox="0 0 38 38" fill="none" xmlns="http://www.w3.org/2000/svg">
<path fill-rule="evenodd" clip-rule="evenodd" d="M8.53203 1.17916C8.53203 0.527735 9.05937 0.000387781 9.7108 0.000387781H28.292C28.4493 -0.00364766 28.6058 0.0238477 28.7523 0.081253C28.8988 0.138658 29.0323 0.224812 29.145 0.334634C29.2577 0.444457 29.3472 0.575726 29.4084 0.720704C29.4695 0.865681 29.501 1.02143 29.501 1.17878C29.501 1.33612 29.4695 1.49187 29.4084 1.63685C29.3472 1.78182 29.2577 1.91309 29.145 2.02292C29.0323 2.13274 28.8988 2.21889 28.7523 2.2763C28.6058 2.3337 28.4493 2.3612 28.292 2.35716H27.6398L26.6611 4.44174H11.4782L10.4568 2.35794H9.7108C9.05937 2.35716 8.53203 1.83059 8.53203 1.17916ZM8.53203 7.70508C8.53203 7.05365 9.05937 6.52631 9.7108 6.52631H28.292C28.4468 6.52631 28.6001 6.5568 28.7431 6.61604C28.8861 6.67527 29.0161 6.7621 29.1255 6.87156C29.235 6.98102 29.3218 7.11097 29.3811 7.25398C29.4403 7.397 29.4708 7.55028 29.4708 7.70508C29.4708 7.85988 29.4403 8.01316 29.3811 8.15618C29.3218 8.2992 29.235 8.42914 29.1255 8.5386C29.0161 8.64806 28.8861 8.73489 28.7431 8.79413C28.6001 8.85337 28.4468 8.88386 28.292 8.88386H27.6398L26.6611 10.9684H11.4782L10.4568 8.88308H9.7108C9.05937 8.88308 8.53203 8.35574 8.53203 7.70508ZM8.53203 14.231C8.53203 13.5803 9.05937 13.053 9.7108 13.053H28.292C28.4493 13.049 28.6058 13.0765 28.7523 13.1339C28.8988 13.1913 29.0323 13.2774 29.145 13.3872C29.2577 13.4971 29.3472 13.6283 29.4084 13.7733C29.4695 13.9183 29.501 14.074 29.501 14.2314C29.501 14.3887 29.4695 14.5445 29.4084 14.6895C29.3472 14.8344 29.2577 14.9657 29.145 15.0755C29.0323 15.1854 28.8988 15.2715 28.7523 15.3289C28.6058 15.3863 28.4493 15.4138 28.292 15.4098H27.6398L26.6611 17.4943H11.4782L10.4568 15.4098H9.7108C9.05937 15.4098 8.53203 14.8824 8.53203 14.231ZM12.0668 19.5797H26.026V21.9357H12.0668V19.5797ZM8.53203 36.0771C8.53203 35.4257 9.05937 34.8983 9.7108 34.8983H10.3273C11.0579 34.1484 12.2025 31.8281 12.2025 27.0579V24.021H17.9134V34.8983H20.1344V24.021H25.8445V27.0579C25.8445 31.8281 26.9892 34.1484 27.7205 34.8983H28.2928C28.4501 34.8943 28.6066 34.9218 28.7531 34.9792C28.8996 35.0366 29.0331 35.1228 29.1458 35.2326C29.2585 35.3424 29.348 35.4737 29.4092 35.6187C29.4703 35.7636 29.5018 35.9194 29.5018 36.0767C29.5018 36.2341 29.4703 36.3898 29.4092 36.5348C29.348 36.6798 29.2585 36.8111 29.1458 36.9209C29.0331 37.0307 28.8996 37.1169 28.7531 37.1743C28.6066 37.2317 28.4501 37.2592 28.2928 37.2551H9.70925C9.0586 37.2551 8.53125 36.7278 8.53125 36.0763L8.53203 36.0771Z" fill="url(#paint0_linear_579_8367)"/>
<defs>
<linearGradient id="paint0_linear_579_8367" x1="9" y1="2.78039e-08" x2="30" y2="39" gradientUnits="userSpaceOnUse">
<stop stop-color="#D7BA4B"/>
<stop offset="0.197955" stop-color="#B7952D"/>
<stop offset="0.416795" stop-color="#BD9E31"/>
<stop offset="0.645361" stop-color="#CEB141"/>
<stop offset="0.828943" stop-color="#E2C856"/>
<stop offset="1" stop-color="#F0D965"/>
</linearGradient>
</defs>
</svg>
