<svg width="22" height="22" viewBox="0 0 22 22" fill="none" xmlns="http://www.w3.org/2000/svg">
    <path d="M11.163 1.853c-5.263 0-9.544 4.28-9.544 9.543 0 5.263 4.28 9.544 9.544 9.544 5.262 0 9.544-4.281 9.544-9.544 0-5.263-4.282-9.543-9.544-9.543zm1.164 14.8c0 .27-.117.517-.348.731-.227.212-.532.318-.906.318-.386 0-.704-.106-.944-.316-.246-.213-.37-.46-.37-.733v-.47c0-.272.125-.52.37-.733.24-.21.558-.316.944-.316.374 0 .679.108.906.319.23.213.348.46.348.73v.47zm2.585-7.03c-.15.296-.344.556-.573.774a4.925 4.925 0 0 1-.732.572c-.25.158-.485.33-.698.51-.21.177-.384.374-.521.587-.13.203-.197.457-.197.754v.295c0 .195-.096.4-.285.61a1.044 1.044 0 0 1-.761.338l-.065.001c-.318 0-.576-.09-.768-.271-.207-.192-.311-.41-.311-.643 0-.548.076-1.014.226-1.386.15-.37.334-.691.55-.955.215-.263.457-.493.72-.683.25-.182.481-.361.687-.533.2-.166.37-.343.51-.525a1 1 0 0 0 .19-.624c0-.414-.113-.71-.345-.906-.234-.198-.56-.299-.965-.299-.27 0-.502.017-.69.05a1.836 1.836 0 0 0-.501.162c-.15.074-.29.177-.418.305a4.176 4.176 0 0 0-.42.505c-.13.183-.324.322-.575.412-.256.093-.542.068-.84-.075-.267-.133-.43-.307-.486-.519a1.189 1.189 0 0 1 0-.604c.037-.176.143-.393.321-.658.175-.26.425-.512.742-.752a4.566 4.566 0 0 1 1.19-.618c.476-.172 1.045-.26 1.694-.26.64 0 1.194.098 1.648.289.457.192.83.449 1.108.763.277.314.482.675.608 1.072.125.393.189.804.189 1.22 0 .423-.078.792-.232 1.092z" fill="#EFC644"/>
</svg>
