<svg width="26" height="26" viewBox="0 0 26 26" fill="none" xmlns="http://www.w3.org/2000/svg">
    <path d="M19.9 18.128a9.956 9.956 0 0 0 2.06-6.053c.065-5.474-4.379-9.918-9.853-9.918a9.918 9.918 0 1 0 0 19.835 9.816 9.816 0 0 0 6.054-2.06l3.284 3.284c.515.515 1.288.515 1.739 0a1.244 1.244 0 0 0 0-1.803l-3.285-3.285zm-7.793 1.288a7.342 7.342 0 1 1 0-14.683 7.342 7.342 0 0 1 0 14.683z" fill="#EFC644"/>
    <path d="M16.293 10.852H8.05a1.288 1.288 0 0 0 0 2.576h8.243a1.288 1.288 0 0 0 0-2.576z" fill="#EFC644"/>
</svg>
