<svg width="45" height="30" viewBox="0 0 45 30" fill="none" xmlns="http://www.w3.org/2000/svg">
    <path d="M29.838 0c-.87 0-1.74.062-2.549.249 4.165 3.543 6.838 8.827 6.838 14.67h3.916l-6.092 9.092-6.03-9.092h3.917C29.838 6.65 23.124 0 14.918 0A14.883 14.883 0 0 0 0 14.919a14.883 14.883 0 0 0 14.919 14.919c.87 0 1.74-.062 2.549-.249-4.165-3.543-6.838-8.827-6.838-14.67H6.714l6.091-9.092 6.092 9.092H14.92a14.883 14.883 0 0 0 14.919 14.919 14.883 14.883 0 0 0 14.919-14.92A14.883 14.883 0 0 0 29.837 0z" fill="url(#a)"/>
    <defs>
        <linearGradient id="a" x1="8.175" y1="-3.34" x2="50.483" y2="4.521" gradientUnits="userSpaceOnUse">
            <stop stop-color="#7054D1"/>
            <stop offset=".51" stop-color="#AB56C9"/>
            <stop offset="1" stop-color="#B275DC"/>
        </linearGradient>
    </defs>
</svg>
