<svg width="16" height="16" viewBox="0 0 16 16" fill="none" xmlns="http://www.w3.org/2000/svg">
<g clip-path="url(#clip0_137_707)">
<path d="M8 0C6.41775 0 4.87104 0.469192 3.55544 1.34824C2.23985 2.22729 1.21447 3.47672 0.608967 4.93853C0.00346629 6.40034 -0.15496 8.00887 0.153721 9.56072C0.462403 11.1126 1.22433 12.538 2.34315 13.6569C3.46197 14.7757 4.88743 15.5376 6.43928 15.8463C7.99113 16.155 9.59966 15.9965 11.0615 15.391C12.5233 14.7855 13.7727 13.7602 14.6518 12.4446C15.5308 11.129 16 9.58225 16 8C15.9989 5.87859 15.1557 3.84438 13.6557 2.34432C12.1556 0.844255 10.1214 0.00105991 8 0M10.73 10.85C10.6376 10.9482 10.526 11.0264 10.4022 11.0797C10.2783 11.133 10.1448 11.1603 10.01 11.16C9.75128 11.1598 9.50182 11.0636 9.31 10.89C8.77 10.37 8.29 9.91 7.87 9.51C6.25 11.15 6.09 11.16 5.73 11.16H5.71C5.44434 11.1608 5.18913 11.0566 5 10.87C4.9073 10.7775 4.83375 10.6676 4.78357 10.5466C4.73339 10.4257 4.70756 10.296 4.70756 10.165C4.70756 10.034 4.73339 9.90435 4.78357 9.78337C4.83375 9.6624 4.9073 9.55251 5 9.46C5.06703 9.38861 5.1446 9.32791 5.23 9.28C5.41 9.12 5.86 8.69 6.43 8.11C4.72 6.41 4.71 6.25 4.71 5.88C4.70683 5.68052 4.76339 5.48465 4.87241 5.31758C4.98144 5.1505 5.13795 5.01986 5.32182 4.94244C5.50569 4.86502 5.70851 4.84437 5.90421 4.88314C6.09991 4.92191 6.27954 5.01833 6.42 5.16C6.48534 5.22986 6.54238 5.30704 6.59 5.39C6.76 5.58 7.23 6.06 7.84 6.67C8.30667 6.18 8.81 5.67 9.28 5.17C9.46614 4.98583 9.71684 4.8816 9.97869 4.87953C10.2405 4.87746 10.4928 4.97771 10.6819 5.15892C10.8709 5.34012 10.9817 5.58797 10.9907 5.84967C10.9997 6.11138 10.9062 6.36625 10.73 6.56C10.18 7.13 9.7 7.62667 9.27 8.07C9.73667 8.52 10.22 8.99 10.7 9.44C10.7947 9.53053 10.8706 9.63884 10.9234 9.75875C10.9762 9.87866 11.0048 10.0078 11.0075 10.1388C11.0103 10.2698 10.9872 10.4 10.9396 10.522C10.892 10.6441 10.8208 10.7555 10.73 10.85Z" fill="#D5AA68"/>
</g>
<defs>
<clipPath id="clip0_137_707">
<rect width="16" height="16" fill="white"/>
</clipPath>
</defs>
</svg>
