<svg width="43" height="43" viewBox="0 0 43 43" fill="none" xmlns="http://www.w3.org/2000/svg">
<path d="M42.2307 38.2853L31.8667 27.924C34.3671 24.4338 35.4631 20.1307 34.9371 15.8696C34.4112 11.6085 32.3016 7.70115 29.0276 4.92369C25.7536 2.14623 21.5546 0.701905 17.2647 0.877622C12.9749 1.05334 8.90808 2.83624 5.87216 5.87216C2.83624 8.90808 1.05334 12.9749 0.877622 17.2647C0.701905 21.5546 2.14623 25.7536 4.92369 29.0276C7.70115 32.3016 11.6085 34.4112 15.8696 34.9371C20.1307 35.4631 24.4338 34.367 27.924 31.8667L38.2867 42.2293C38.8233 42.6777 39.5084 42.9091 40.207 42.8778C40.9057 42.8466 41.5674 42.5551 42.0619 42.0605C42.5564 41.566 42.848 40.9044 42.8792 40.2057C42.9104 39.507 42.6791 38.822 42.2307 38.2853ZM6 18C6 15.6266 6.70378 13.3065 8.02236 11.3332C9.34094 9.35976 11.2151 7.82169 13.4078 6.91344C15.6005 6.00519 18.0133 5.76755 20.3411 6.23057C22.6689 6.69359 24.807 7.83648 26.4853 9.51471C28.1635 11.1929 29.3064 13.3311 29.7694 15.6589C30.2324 17.9867 29.9948 20.3995 29.0866 22.5922C28.1783 24.7849 26.6402 26.6591 24.6668 27.9776C22.6934 29.2962 20.3734 30 18 30C14.8174 30 11.7652 28.7357 9.51471 26.4853C7.26428 24.2348 6 21.1826 6 18Z" fill="url(#paint0_linear_176_916)"/>
<defs>
<linearGradient id="paint0_linear_176_916" x1="0.863281" y1="14.5997" x2="43.2036" y2="15.4441" gradientUnits="userSpaceOnUse">
<stop stop-color="#7054D1"/>
<stop offset="0.515651" stop-color="#AB56C9"/>
<stop offset="1" stop-color="#B275DC"/>
</linearGradient>
</defs>
</svg>
