<svg width="42" height="45" viewBox="0 0 42 45" fill="none" xmlns="http://www.w3.org/2000/svg">
    <path fill-rule="evenodd" clip-rule="evenodd" d="M11.665 35.682c-.027.01-.055.016-.081.02-.055.01-.102.019-.13.078-.02.042-.066.033-.099 0a.283.283 0 0 1-.027-.033c-.011-.014-.018-.023-.031-.024-.073-.005-.123-.047-.172-.09-.036-.03-.07-.06-.114-.076-.067-.027-.122-.072-.178-.117a.544.544 0 0 0-.24-.136c-.027-.005-.039-.028-.05-.052-.015-.03-.03-.06-.078-.05a.651.651 0 0 0-.146-.1c-.077-.043-.155-.086-.2-.17 0-.013-.03-.02-.047-.024h-.004a.438.438 0 0 1-.244-.178.167.167 0 0 0-.061-.04c-.033-.016-.068-.033-.082-.074-.155-.058-.267-.17-.38-.28-.037-.037-.074-.074-.113-.109a.175.175 0 0 0-.064-.034.78.78 0 0 1-.223-.174c-.05-.054-.106-.101-.166-.143a1.305 1.305 0 0 1-.262-.25c-.008-.012-.017-.023-.028-.029a3.319 3.319 0 0 1-.34-.286.57.57 0 0 1-.043-.046c-.034-.04-.07-.082-.129-.097-.02-.005-.032-.026-.043-.048-.015-.03-.03-.061-.075-.059a2.225 2.225 0 0 0-.286-.3 5.59 5.59 0 0 1-.107-.119 5.61 5.61 0 0 0-.113-.127l-.032-.041c-.024-.033-.048-.066-.08-.08-.063-.028-.083-.076-.103-.126a.638.638 0 0 0-.02-.043c-.012-.023-.034-.041-.056-.06a.318.318 0 0 1-.045-.04 3.387 3.387 0 0 0-.356-.374.57.57 0 0 1-.12-.164 1.997 1.997 0 0 0-.248-.32 1.024 1.024 0 0 1-.182-.24.47.47 0 0 0-.124-.17.636.636 0 0 1-.187-.255.34.34 0 0 0-.093-.12c-.054-.047-.088-.108-.123-.17-.04-.07-.081-.143-.153-.196-.038-.028-.06-.079-.083-.128-.012-.028-.025-.056-.04-.079a8.06 8.06 0 0 1-.158-.264.666.666 0 0 0-.062-.085c-.043-.052-.086-.105-.094-.178 0-.03-.025-.045-.05-.06-.029-.02-.06-.038-.046-.083-.05-.025-.068-.074-.085-.122-.017-.049-.034-.097-.083-.122 0 0-.01-.018-.013-.027a1.167 1.167 0 0 0-.13-.26 1.382 1.382 0 0 1-.113-.216.904.904 0 0 0-.143-.216.327.327 0 0 1-.049-.105c-.013-.04-.026-.08-.055-.116-.03-.036-.05-.089-.07-.144-.02-.054-.042-.11-.073-.154-.036-.049-.054-.106-.072-.162-.022-.072-.045-.144-.104-.198a.084.084 0 0 1-.021-.053c0-.064-.009-.127-.08-.163-.01 0-.013-.02-.015-.041a.246.246 0 0 0-.004-.027.336.336 0 0 1-.005-.035c-.005-.041-.01-.084-.062-.108a.04.04 0 0 1-.019-.024l-.024-.075a14.757 14.757 0 0 0-.103-.305.711.711 0 0 0-.043-.089.605.605 0 0 1-.047-.103l-.01-.047c-.01-.055-.02-.108-.077-.15-.012-.008-.015-.035-.017-.057l-.002-.012a.69.69 0 0 1-.003-.033c-.005-.052-.009-.102-.067-.137-.018-.01-.022-.052-.025-.081l-.004-.043c-.006-.068-.011-.134-.082-.183-.017-.014-.02-.048-.024-.078l-.002-.02a.76.76 0 0 1-.004-.04c-.005-.058-.01-.113-.072-.158-.01 0-.011-.022-.013-.044a.83.83 0 0 1-.01-.088c-.005-.07-.01-.138-.072-.192-.02-.015-.02-.05-.022-.085a.39.39 0 0 0-.004-.043.703.703 0 0 1-.007-.058c-.006-.064-.012-.129-.074-.174a.032.032 0 0 1-.013-.026.57.57 0 0 0-.057-.292.673.673 0 0 1-.06-.246.714.714 0 0 0-.053-.18 4.421 4.421 0 0 1-.049-.23c-.004-.021-.005-.044-.006-.067-.003-.062-.007-.13-.064-.183-.022-.021-.022-.066-.022-.11v-.048a.967.967 0 0 1-.004-.07c-.002-.078-.004-.156-.067-.223-.018-.02-.02-.057-.021-.092l-.002-.023-.014-.21a23.36 23.36 0 0 0-.007-.102c0-.035 0-.078-.013-.103-.08-.107-.079-.23-.079-.353 0-.04 0-.081-.002-.121a.606.606 0 0 0-.068-.313.476.476 0 0 1-.024-.22 19.393 19.393 0 0 1-.007-.232c-.002-.116-.005-.233-.011-.348a1.431 1.431 0 0 0-.043-.2.485.485 0 0 1-.017-.102l-.01-.28c-.01-.323-.02-.646-.025-.97 0-.343 0-.687.009-1.029 0-.096.018-.19.035-.286.011-.06.023-.12.03-.18a6.826 6.826 0 0 0 .035-.579c0-.065 0-.13.007-.193a1.86 1.86 0 0 1 .049-.215.896.896 0 0 0 .032-.158c.006-.07.007-.14.009-.21 0-.04.001-.079.003-.119a.26.26 0 0 1 .017-.116c.063-.146.093-.305.086-.464a.444.444 0 0 1 .063-.24.405.405 0 0 0 .033-.172.571.571 0 0 1 .077-.34c.021-.026.02-.07.02-.115l.001-.059a.418.418 0 0 1 .069-.236.444.444 0 0 0 .038-.185c.004-.02.005-.042.006-.064.002-.061.005-.123.073-.162a.032.032 0 0 0 .01-.027c-.015-.104.022-.196.059-.288.032-.081.064-.162.062-.251 0-.028.017-.057.033-.087a.505.505 0 0 0 .054-.126.457.457 0 0 0 .01-.076c.003-.065.007-.131.078-.175.01-.007.01-.028.011-.049l.001-.023.004-.039c.005-.069.01-.138.08-.188.015-.012.019-.042.022-.071 0-.01.002-.02.003-.028.003-.015.004-.032.005-.048.003-.056.006-.112.075-.142.012 0 .014-.035.016-.054a.226.226 0 0 1 .07-.187c.015-.013.02-.04.025-.067l.006-.029c.004-.016.006-.033.008-.05.006-.051.012-.102.072-.13a.03.03 0 0 0 .013-.026c-.008-.08.026-.143.06-.205.026-.049.053-.096.059-.152a.357.357 0 0 1 .041-.093l.06-.128.049-.098a.336.336 0 0 0 .043-.088l.003-.02c.008-.047.015-.092.065-.123.01-.005.015-.02.02-.036a.637.637 0 0 0 .023-.08c.012-.053.025-.105.072-.15a.635.635 0 0 0 .108-.201c.023-.05.044-.102.066-.153l.066-.153c.03-.068.058-.121.086-.175l.042-.082a.753.753 0 0 1 .07-.107c.05-.065.097-.13.103-.219.059-.02.073-.07.087-.122.013-.051.027-.102.085-.124.009 0 .014-.019.018-.033l.002-.004a.456.456 0 0 0 .01-.039c.01-.045.02-.09.077-.118.015-.008.02-.03.027-.053.009-.034.02-.074.063-.09.006-.07.046-.123.086-.175.02-.027.04-.053.057-.082a.516.516 0 0 1 .158-.233c.012-.008.018-.025.023-.042.003-.008.005-.015.009-.022.044-.085.1-.164.165-.235a.52.52 0 0 0 .054-.089c.023-.045.047-.09.09-.128.052-.062.1-.129.142-.198.004-.007.01-.012.017-.018.01-.009.019-.017.019-.027 0-.065.041-.106.083-.148a.413.413 0 0 0 .06-.069 2.63 2.63 0 0 1 .211-.296c.03-.032.057-.066.084-.1.047-.057.093-.115.152-.165a.267.267 0 0 0 .056-.084c.02-.04.04-.082.087-.112.026-.016.044-.047.061-.078a.202.202 0 0 1 .062-.078.415.415 0 0 0 .11-.112c.038-.052.076-.102.14-.127a.039.039 0 0 0 .023-.032c-.006-.077.04-.117.087-.159a.33.33 0 0 0 .07-.074c.03-.052.064-.077.098-.102.02-.014.039-.029.058-.048l.059-.071a.79.79 0 0 1 .083-.095l.07-.06c.031-.027.063-.053.092-.083l.286-.296.09-.099c.051-.056.098-.109.153-.156.027-.025.051-.054.077-.085.052-.063.108-.13.197-.157.013-.004.02-.02.03-.037.012-.026.027-.056.064-.057.026-.07.081-.11.136-.15a.442.442 0 0 0 .12-.115.384.384 0 0 1 .186-.132.265.265 0 0 0 .11-.088.375.375 0 0 1 .067-.065c.06-.043.113-.097.165-.15.065-.067.13-.133.208-.178.138-.093.27-.194.396-.304a.076.076 0 0 1 .04-.017c.072 0 .112-.046.152-.091a.418.418 0 0 1 .06-.06c.029-.022.058-.042.087-.061.043-.03.085-.058.128-.094a.842.842 0 0 1 .082-.058c.051-.034.104-.068.142-.122a.097.097 0 0 1 .05-.024.53.53 0 0 0 .26-.188c.007-.008.014-.015.02-.015.1 0 .16-.057.22-.114a.667.667 0 0 1 .08-.069.098.098 0 0 1 .027-.014.485.485 0 0 0 .179-.105.628.628 0 0 1 .169-.098c.033-.012.06-.036.088-.06.045-.04.09-.08.162-.064.007 0 .017-.011.027-.023.007-.007.013-.015.02-.02l.012-.011c.016-.015.036-.033.055-.036.055-.01.098-.04.143-.07a.432.432 0 0 1 .143-.073.965.965 0 0 0 .16-.089.732.732 0 0 0 .104-.07.416.416 0 0 1 .166-.09c.049-.009.097-.038.148-.068.05-.03.1-.06.156-.075a.61.61 0 0 0 .279-.143c.016-.017.042-.023.068-.03a.308.308 0 0 0 .04-.011l.122-.05.128-.06.102-.054a.315.315 0 0 1 .074-.035l.042-.006c.048-.005.095-.01.121-.07.006-.016.041-.022.069-.027l.013-.002a.286.286 0 0 0 .198-.086c.01-.012.032-.014.055-.017a.46.46 0 0 1 .058-.007c.043-.004.086-.008.106-.06a.034.034 0 0 1 .023-.016.803.803 0 0 0 .328-.112.277.277 0 0 1 .098-.026c.057-.008.115-.016.154-.074.005-.006.02-.004.036-.002a.286.286 0 0 0 .254-.075c.014-.016.042-.02.07-.024l.027-.004c.018-.004.037-.006.056-.008.057-.006.115-.012.158-.074.011-.016.043-.017.074-.018l.038-.003c.016-.002.032-.003.049-.003.057-.001.114-.002.148-.069a.028.028 0 0 1 .024-.013c.104.015.195-.023.287-.061a.562.562 0 0 1 .269-.063.167.167 0 0 0 .143-.056c.022-.024.07-.027.115-.03.013 0 .026-.001.038-.003.1.002.198-.022.285-.07a.675.675 0 0 1 .276-.042c.08 0 .157-.02.226-.06a.286.286 0 0 1 .143-.032c.052-.004.105-.006.159-.007l.127-.006A.233.233 0 0 0 18.1.231a.227.227 0 0 1 .126-.035c.094 0 .19 0 .285-.011.06-.007.118-.02.174-.033l.1-.021c.093-.02.186-.034.28-.043.138-.007.278-.01.417-.011l.18-.003a.216.216 0 0 0 .165-.046A.178.178 0 0 1 19.94 0H22.176c.123.081.257.076.39.072.064-.003.128-.005.19.002a2.43 2.43 0 0 1 .472.041c.225.054.455.081.687.082a.143.143 0 0 1 .084.02c.052.058.119.06.184.061l.036.002a.88.88 0 0 1 .403.071c.09.029.184.042.279.04a.286.286 0 0 1 .19.066c.022.022.067.024.111.026l.045.002a.684.684 0 0 0 .076.003c.077 0 .153 0 .21.073.174.02.346.062.51.126.029.009.06.01.09.012.066.003.131.007.177.077.006.01.028.01.05.01a.32.32 0 0 1 .021 0c.018.002.037.003.055.003.068.003.135.006.187.075.012.016.043.018.074.02a.295.295 0 0 1 .054.007c.01.003.023.004.036.006.042.005.094.01.117.064a.038.038 0 0 0 .034.022c.09-.018.167.018.242.053.06.028.12.056.187.058.025 0 .05.008.07.022a.41.41 0 0 0 .24.092c.028 0 .05.02.073.04.028.026.058.052.104.048a.173.173 0 0 1 .18.075c.008.013.03.016.054.018l.03.005c.01.003.023.003.034.004.023.002.044.003.05.016.039.077.108.083.173.088l.044.005a.286.286 0 0 1 .078.034c.02.01.038.022.057.033l.039.023c.033.019.091.052.143.074a.571.571 0 0 0 .081.032l.036.006c.04.005.08.01.093.067a.027.027 0 0 0 .009.01.027.027 0 0 0 .012.005c.07-.01.124.025.178.059.041.026.082.052.131.059.018 0 .035.015.051.03a.286.286 0 0 0 .099.062.283.283 0 0 0 .041.008c.043.006.086.012.102.073 0 .008.024.012.046.017a.357.357 0 0 1 .021.004l.026.005c.039.007.076.014.097.062.008.018.04.028.066.036l.008.003a.154.154 0 0 0 .024.004c.036.004.093.011.102.071a.031.031 0 0 0 .021.016c.098.01.175.062.251.115a.633.633 0 0 0 .197.104c.022.059.073.075.126.093.05.016.104.034.134.09.02.037.072.057.124.078.03.012.06.024.084.039.025.015.043.028.06.039.028.019.05.034.083.05a.556.556 0 0 0 .039.018c.037.016.07.03.104.076.029.039.081.062.133.084a.682.682 0 0 1 .078.039c.02.012.042.022.063.033.05.025.097.048.117.088.03.059.08.08.13.102.037.015.073.03.102.06.058.07.13.127.212.167.01.004.018.012.027.02.01.009.02.018.031.02.063.007.102.049.14.09a.327.327 0 0 0 .083.07c.047.024.077.054.107.083a.5.5 0 0 0 .069.06c.13.083.25.184.354.298.063.053.13.098.203.136.014.01.03.018.045.027.04.024.081.048.098.083a.345.345 0 0 0 .117.117c.055.039.11.078.129.15a.477.477 0 0 1 .18.137c.021.023.043.046.067.067a.88.88 0 0 1 .054.055c.045.047.08.083.156.088.026 0 .05.034.074.067a3.581 3.581 0 0 0 .364.397c.058.046.109.1.16.155.063.068.126.135.203.189h.003c.01.008.026.017.027.028.023.098.09.16.157.223.038.036.076.071.106.113.08.11.172.21.273.301.132.135.254.278.365.43.053.063.107.125.161.186l.143.165c.05.061.092.13.124.203.012.028.039.042.064.056.036.019.068.036.052.086.054.046.089.105.124.165.04.068.08.137.149.185.034.025.053.07.073.115a.365.365 0 0 0 .06.104c.058.077.11.157.158.24.09.12.171.246.245.376a.47.47 0 0 0 .043.062c.018.023.036.046.048.072a.19.19 0 0 1 .007.016l.007.021c.013.038.026.076.079.099.02.009.032.037.045.069.01.025.02.053.038.074.055.091.103.187.143.286.01.02.024.038.038.057.018.025.036.05.048.077a.51.51 0 0 0 .077.134.498.498 0 0 1 .073.133.57.57 0 0 0 .07.132c.025.032.041.07.057.107.024.055.047.11.098.146a.054.054 0 0 1 .017.022c.03.11.074.213.132.31.037.047.054.1.07.153a.394.394 0 0 0 .073.152c.024.03.04.067.045.105l.004.02.002.008c.007.044.014.086.062.115.012.008.017.029.022.05.002.01.004.02.008.029a1.995 1.995 0 0 0 .072.163c.012.024.024.047.033.071.004.01.006.023.008.037.005.034.01.072.057.082.008 0 .02.014.018.021-.008.084.027.152.062.22.025.05.05.098.06.152.013.039.033.076.058.108 0 .006.007.011.013.017.007.005.013.01.014.016.005.025.006.052.008.08.002.052.005.104.03.136.05.052.078.12.078.193v.014c.04.058.061.124.082.19.022.066.043.132.083.19 0 0 .015.016.014.025a.595.595 0 0 0 .064.256c.024.057.047.114.057.172l.006.054c.006.065.012.13.074.178.015.01.017.037.02.062a.44.44 0 0 0 .002.022l.007.065c.005.068.01.135.068.195.023.024.024.07.025.115 0 .02 0 .04.003.058a.36.36 0 0 0 .06.193c.029.062.044.13.045.198a.429.429 0 0 0 .067.238c.024.028.025.076.026.122a.75.75 0 0 0 .003.05l.003.041c.004.075.008.147.064.208.018.02.021.056.024.09l.001.02v.004l.012.134.01.134a.21.21 0 0 0 .018.101c.073.099.074.21.074.32 0 .031 0 .063.003.094a.572.572 0 0 0 .065.315c.02.045.028.094.023.143 0 .09.004.181.008.272l.007.156a.255.255 0 0 0 .01.087c.07.202.1.416.088.63.003.103.004.208.004.312 0 .115 0 .23.005.344a.846.846 0 0 0 .048.38.216.216 0 0 1 .009.088v.731c.003.02.003.04 0 .06-.068.178-.062.363-.057.548.003.103.007.207-.003.31-.013.14-.019.282-.025.423v.001l-.01.214a.48.48 0 0 1-.02.1c-.02.055-.035.11-.045.167-.005.077-.007.153-.01.23-.003.087-.005.175-.012.262a.819.819 0 0 1-.05.166.465.465 0 0 0-.025.097c0 .05-.003.1-.005.152-.002.045-.005.089-.005.134a.384.384 0 0 1-.058.225.285.285 0 0 0-.034.126c-.006.053-.01.105-.013.158a5.89 5.89 0 0 1-.007.095c0 .034 0 .082-.017.102-.072.074-.073.163-.074.252 0 .023 0 .046-.002.069a.39.39 0 0 1-.06.211.311.311 0 0 0-.034.143.535.535 0 0 1-.081.309c-.025.031-.027.08-.029.128 0 .02-.002.04-.004.06a.583.583 0 0 0-.003.03v.006c-.005.055-.01.114-.066.15 0 0-.016.017-.014.025a.999.999 0 0 1-.103.404c-.01.028-.014.057-.019.087-.01.061-.02.123-.071.173-.016.016-.017.047-.019.076v.017l-.001.006c0 .062 0 .131-.067.17a1.385 1.385 0 0 1-.126.412.293.293 0 0 0-.013.063c-.007.047-.013.094-.07.128-.01 0-.012.022-.013.044l-.001.015-.002.01-.005.056c-.004.063-.008.126-.08.166-.012 0-.015.026-.018.049a.357.357 0 0 1-.002.02.257.257 0 0 1-.092.172c-.02.02-.027.054-.033.088a.512.512 0 0 1-.008.035l-.002.006v.007l-.002.007-.002.014c-.005.04-.01.086-.063.11a.022.022 0 0 0-.008.01c.005.075-.03.133-.067.191a.338.338 0 0 0-.066.171.287.287 0 0 1-.049.106.285.285 0 0 0-.04.073.561.561 0 0 0-.005.037c-.005.055-.011.11-.083.131-.008 0-.011.018-.015.036a.187.187 0 0 1-.007.032l-.007.038c-.005.04-.01.08-.067.095-.012 0-.019.032-.02.05a.794.794 0 0 0-.003.032c-.005.058-.01.116-.083.139.008.068-.029.118-.065.167-.032.044-.065.089-.066.146 0 .02-.019.053-.035.057-.042.013-.046.04-.05.071l-.004.023-.001.008-.002.008v.01c-.005.036-.01.08-.067.09l-.003.001-.002.002a.058.058 0 0 0-.004.002h-.002a.043.043 0 0 0-.016.026.414.414 0 0 1-.106.226.389.389 0 0 0-.049.105c-.018.05-.035.097-.07.121-.047.03-.062.078-.077.125-.017.054-.033.107-.098.127-.01.108-.073.18-.136.254-.02.024-.041.048-.06.073-.012.016-.014.043-.017.068-.002.026-.005.05-.017.055-.059.025-.077.073-.095.12-.01.028-.021.055-.04.078-.1.129-.19.265-.27.407-.038.057-.081.11-.13.159-.003.005-.01.01-.015.013-.007.006-.014.01-.016.017a.534.534 0 0 1-.131.216c-.046.046-.079.104-.11.16-.034.06-.066.117-.112.16-.11.124-.21.258-.298.398a1.906 1.906 0 0 1-.18.178c-.038.035-.077.072-.088.115a.445.445 0 0 1-.143.198.48.48 0 0 0-.04.054c-.03.047-.062.094-.124.107a.79.79 0 0 1-.175.211c-.047.044-.093.088-.13.14a.549.549 0 0 1-.135.142.215.215 0 0 0-.094.123.319.319 0 0 1-.072.083c-.08.084-.16.168-.243.25l-.15.144-.121.116-.036.039a.623.623 0 0 1-.048.05 30.996 30.996 0 0 0-.429.36c-.095.098-.195.19-.3.278a.967.967 0 0 0-.102.09c-.04.039-.08.078-.125.107a1.12 1.12 0 0 0-.143.115c-.027.025-.055.05-.084.074a1.316 1.316 0 0 0-.166.123 1.826 1.826 0 0 1-.276.21l-.104.082c-.06.045-.118.09-.175.14-.042.038-.081.06-.117.08a.31.31 0 0 0-.106.08c-.035.045-.082.069-.13.093a.349.349 0 0 0-.128.09c-.034.043-.087.067-.143.092a.979.979 0 0 0-.08.04.872.872 0 0 0-.123.093.645.645 0 0 1-.216.117.294.294 0 0 0-.13.116c-.034.073-.085.07-.134.066l-.041-.002-.013.001-.015.001c-.054.005-.11.01-.13-.068-.104-.026-.104-.107-.104-.185v-.027a10.438 10.438 0 0 1 0-.298v-8.591l.001-.032.002-.029c.005-.082.01-.164-.072-.225a.088.088 0 0 1 0-.084.289.289 0 0 0 .059-.1.264.264 0 0 1 .084-.126.61.61 0 0 0 .143-.227.15.15 0 0 1 .05-.05c.03-.023.06-.045.053-.093.05-.021.066-.067.083-.113.018-.05.037-.1.097-.119.01-.091.061-.162.113-.232.048-.066.096-.133.11-.216.004-.025.025-.037.046-.05.028-.016.057-.034.05-.082a.113.113 0 0 1 .077-.13c.013 0 .017-.028.022-.054a.361.361 0 0 1 .005-.026.185.185 0 0 0 .003-.02c.004-.034.01-.083.066-.098.011 0 .02-.032.023-.049a.5.5 0 0 0 .004-.037c.006-.05.011-.1.078-.122.01 0 .015-.021.019-.042l.006-.025c.004-.012.006-.026.008-.04.006-.04.012-.079.07-.087 0 0 .009-.007.009-.011a.715.715 0 0 1 .098-.257c.014-.029.02-.06.027-.092.012-.057.023-.115.083-.154.01-.007.01-.026.011-.045 0-.01 0-.019.002-.027a.38.38 0 0 0 .003-.038c.002-.04.004-.08.065-.092a.031.031 0 0 0 .012-.015l.001-.005v-.004c-.016-.093.023-.17.063-.249.031-.062.062-.123.065-.193 0-.051 0-.111.064-.142.007 0 .017-.018.016-.025a.497.497 0 0 1 .057-.26c.029-.07.058-.139.06-.215a.285.285 0 0 1 .069-.22c.022-.021.024-.062.026-.103.002-.018.002-.036.005-.052a.736.736 0 0 0 .006-.074c.004-.072.007-.143.068-.205.02-.018.02-.056.02-.094v-.019c0-.01 0-.02.002-.03.005-.04.005-.081.006-.122.002-.112.003-.223.084-.32.013-.017.013-.045.012-.073v-.03l.008-.172c.003-.085.007-.171.014-.257.011-.057.025-.114.043-.17a.821.821 0 0 0 .034-.173v-2.103a.358.358 0 0 0-.041-.167.768.768 0 0 1-.043-.26 4.457 4.457 0 0 1-.012-.205l-.007-.137a.714.714 0 0 0-.058-.241.92.92 0 0 1-.04-.262v-.032c.002-.072.004-.146-.065-.2a.039.039 0 0 1-.01-.028 1.77 1.77 0 0 0-.115-.513c-.01-.03-.013-.061-.016-.093-.007-.064-.013-.128-.071-.178-.014-.012-.016-.04-.018-.067a.86.86 0 0 0 0-.019c0-.097 0-.198-.084-.276-.012-.01-.013-.034-.015-.058 0-.01 0-.019-.002-.027a.287.287 0 0 0-.084-.215c-.016-.012-.02-.04-.022-.066l-.003-.015a.389.389 0 0 1-.003-.037c-.002-.045-.005-.09-.067-.106 0 0-.007-.007-.007-.012a.781.781 0 0 0-.117-.337.665.665 0 0 1-.041-.09c-.014-.034-.027-.068-.046-.1a.762.762 0 0 1-.052-.12c-.014-.04-.03-.08-.048-.117a9.045 9.045 0 0 1-.067-.132 5.102 5.102 0 0 0-.13-.25 1.615 1.615 0 0 0-.143-.297.338.338 0 0 1-.06-.117c-.02-.057-.04-.113-.1-.144-.008 0-.013-.013-.015-.022v-.001c-.006-.015-.009-.03-.012-.045-.01-.049-.02-.096-.082-.126-.034-.017-.054-.065-.072-.11-.006-.015-.012-.031-.02-.045-.044-.088-.098-.17-.152-.254a4.507 4.507 0 0 1-.097-.154.788.788 0 0 0-.11-.192l-.005-.005-.005-.004c-.012-.012-.025-.023-.027-.037a.385.385 0 0 0-.129-.19c-.05-.046-.083-.105-.115-.162a.62.62 0 0 0-.1-.148 3.954 3.954 0 0 1-.318-.358c-.023-.03-.048-.057-.073-.084a.924.924 0 0 1-.101-.123 1.211 1.211 0 0 0-.177-.186c-.021-.02-.04-.043-.06-.066a1.257 1.257 0 0 0-.072-.077c-.064-.057-.123-.119-.182-.181a3.066 3.066 0 0 0-.19-.19c-.046-.038-.09-.08-.133-.122-.039-.037-.078-.075-.12-.111a2.978 2.978 0 0 0-.22-.178 1.007 1.007 0 0 1-.16-.127 1.413 1.413 0 0 0-.318-.266 1.09 1.09 0 0 1-.21-.171.409.409 0 0 0-.162-.113c-.063-.024-.116-.067-.17-.11-.067-.055-.136-.11-.225-.127a.447.447 0 0 0-.177-.12.496.496 0 0 1-.146-.09.323.323 0 0 0-.183-.096c-.021-.005-.031-.023-.042-.043-.015-.026-.03-.054-.075-.048-.042.006-.073-.02-.104-.047a.501.501 0 0 0-.03-.023 1.54 1.54 0 0 0-.285-.136.666.666 0 0 1-.216-.109c-.042-.045-.098-.06-.154-.076-.066-.018-.13-.035-.171-.1-.008-.012-.034-.013-.06-.014l-.025-.001-.011-.001c-.03-.002-.08-.005-.103-.052-.011-.02-.049-.03-.076-.036l-.046-.01c-.061-.011-.123-.023-.165-.083a.077.077 0 0 0-.053-.02c-.073 0-.143 0-.196-.075-.01-.015-.042-.017-.069-.02h-.015a.297.297 0 0 1-.203-.076c-.02-.021-.057-.025-.096-.03-.016-.001-.032-.003-.047-.006a.404.404 0 0 0-.035-.004c-.046-.005-.099-.01-.134-.064-.01-.02-.051-.022-.093-.024-.017 0-.034-.001-.05-.004l-.055-.005c-.069-.005-.137-.01-.195-.067-.016-.018-.05-.02-.084-.022a.411.411 0 0 1-.043-.004 1 1 0 0 0-.064-.007c-.077-.006-.152-.012-.211-.08-.015-.017-.05-.018-.081-.018h-.018c-.084 0-.169 0-.253-.01-.034 0-.083 0-.1-.02-.057-.065-.129-.065-.201-.066h-.047a1.555 1.555 0 0 1-.552-.09.617.617 0 0 0-.237-.018c-.552 0-1.103 0-1.655-.007h-.254a1.556 1.556 0 0 0-.497.064 1.593 1.593 0 0 1-.355.043.59.59 0 0 0-.34.072c-.034.026-.089.024-.144.022a.689.689 0 0 0-.074 0 .404.404 0 0 0-.278.073c-.032.03-.09.032-.146.034-.024.001-.048.002-.07.005a.251.251 0 0 0-.175.06c-.023.023-.068.027-.112.03l-.031.003a.524.524 0 0 1-.048.004c-.054.002-.107.005-.148.064-.017.024-.065.026-.11.028a.713.713 0 0 0-.046.002.286.286 0 0 0-.202.073.134.134 0 0 1-.08.032c-.014.003-.029.004-.043.006-.048.005-.097.01-.123.067a.03.03 0 0 1-.024.014c-.09-.017-.161.023-.233.062a.455.455 0 0 1-.16.064.348.348 0 0 0-.092.041.75.75 0 0 1-.121.05c-.013.003-.025.005-.038.006-.044.006-.086.01-.105.07 0 .011-.029.015-.055.019a.423.423 0 0 0-.025.004l-.033.005c-.042.005-.082.01-.1.069 0 .013-.027.02-.049.026l-.008.002-.007.002a.268.268 0 0 1-.042.008c-.043.006-.087.012-.101.072 0 .007-.021.01-.04.014a.368.368 0 0 0-.013.003l-.034.004c-.05.006-.103.01-.122.078 0 .007-.013.01-.027.013l-.024.008c-.169.07-.328.162-.473.273a.08.08 0 0 1-.04.019c-.053 0-.087.03-.122.062a.262.262 0 0 1-.078.055.533.533 0 0 0-.209.121.513.513 0 0 1-.166.116c-.042.021-.084.043-.12.073-.02.016-.038.034-.056.053-.023.023-.046.046-.075.065-.05.033-.102.063-.156.089a.387.387 0 0 0-.153.134.137.137 0 0 1-.05.043c-.013.007-.025.014-.031.023a.44.44 0 0 1-.157.12c-.073.04-.146.08-.18.166-.074.018-.119.07-.166.122-.035.04-.07.082-.12.11-.065.036-.107.092-.148.147-.03.04-.06.082-.1.114-.134.106-.253.229-.371.35-.063.066-.125.13-.19.193-.101.098-.2.207-.297.314a3.27 3.27 0 0 0-.234.319c-.013.016-.024.034-.035.052-.025.042-.05.083-.088.105a.307.307 0 0 0-.113.136.703.703 0 0 1-.03.054 2.806 2.806 0 0 1-.196.25c-.026.03-.045.067-.064.105a.53.53 0 0 1-.069.112.842.842 0 0 0-.094.13.72.72 0 0 1-.09.143.778.778 0 0 0-.127.25c-.009.022-.028.034-.048.046-.03.017-.058.035-.052.085 0 .048-.034.084-.072.125l-.003.003c-.04.064-.076.131-.107.201a2.37 2.37 0 0 0-.128.286c-.03.059-.062.116-.094.173-.024.043-.05.087-.072.131-.008.016-.013.033-.018.05a.262.262 0 0 1-.015.046c-.01.02-.024.044-.038.068l-.012.02-.011.02a.304.304 0 0 0-.032.078c-.003.012-.004.025-.006.038-.005.045-.01.089-.07.105a.438.438 0 0 1-.068.203.6.6 0 0 0-.062.148l-.007.046c-.005.046-.01.092-.063.124-.019.013-.023.056-.026.093l-.002.018-.004.039c-.005.056-.01.112-.073.144 0 0-.008.008-.008.012 0 .083-.03.157-.06.23a.661.661 0 0 0-.06.214.453.453 0 0 1-.061.225.554.554 0 0 0-.044.198.41.41 0 0 1-.07.222c-.024.029-.026.075-.028.12a.68.68 0 0 1-.004.051c-.003.025-.004.05-.004.076-.002.07-.004.142-.066.203-.017.017-.018.053-.018.088 0 .014 0 .028-.002.04a6.562 6.562 0 0 0-.01.143c-.006.076-.011.153-.021.229a1.068 1.068 0 0 1-.054.166.388.388 0 0 0-.02.1l-.015.46v.001a192.522 192.522 0 0 1-.014.49c.002.06.003.122-.049.167-.018.017-.02.057-.02.089l-.001.009v.571a.183.183 0 0 0 0 .074c.076.147.073.302.07.457-.001.076-.002.152.006.228.008.077.009.155.01.233l.001.125a.959.959 0 0 0 .06.302c.03.11.044.223.044.337-.004.1.018.198.063.286a.503.503 0 0 1 .052.218l.005.058c.005.07.01.14.068.204.025.024.027.073.029.122 0 .022.002.044.005.064a.594.594 0 0 1 .005.043c.004.058.01.127.066.175.018.017.021.051.024.084l.003.03c.002.016.003.033.003.05.002.057.003.115.067.16.021.014.022.056.024.097 0 .015 0 .031.002.045a.286.286 0 0 0 .079.217c.016.015.02.043.026.072a.535.535 0 0 0 .007.049c.004.038.01.092.06.118a.033.033 0 0 1 .014.024.84.84 0 0 0 .108.325c.017.026.027.056.037.087.013.041.027.085.06.124.012.013.014.036.017.059a.315.315 0 0 0 .004.025l.002.02c.004.036.01.096.066.116.016 0 .023.038.027.061v.002a.823.823 0 0 1 .005.027c.008.054.016.106.08.133.01 0 .013.02.017.041.002.01.003.019.006.026a.265.265 0 0 1 .007.038c.005.04.01.08.067.09.008 0 .015.03.019.05v.004c.004.012.005.025.007.039.006.048.011.097.075.116.009 0 .012.018.016.035l.002.008.002.01a.33.33 0 0 1 .01.043c.01.043.018.085.073.1a.054.054 0 0 1 .022.036c0 .075.043.13.086.184.027.035.055.07.07.11.02.05.05.093.079.138.033.049.066.099.086.157a.679.679 0 0 0 .163.201c.01.007.02.013.02.02.013.113.084.187.155.262a.9.9 0 0 1 .1.118c.032.041.053.09.06.143v9.356l-.004-.004zm.002 8.024a.451.451 0 0 1-.04.01c-.022.004-.039.007-.045.016-.051.093-.133.089-.213.085l-.032-.002c-.095 0-.189-.002-.283-.005h-.001a10.943 10.943 0 0 0-.288-.005H2.998c-.064 0-.128.003-.193.005-.064.003-.13.005-.194.005a.466.466 0 0 0-.047.003c-.06.006-.124.013-.156-.072 0 0-.019-.011-.027-.011a.658.658 0 0 1-.303-.101.292.292 0 0 0-.052-.016c-.043-.01-.086-.02-.107-.073a.05.05 0 0 0-.037-.02.428.428 0 0 1-.286-.179c-.009-.01-.027-.016-.045-.022a.327.327 0 0 1-.02-.006.95.95 0 0 1-.22-.162.31.31 0 0 1-.068-.069.236.236 0 0 0-.104-.088.342.342 0 0 1-.111-.114 1.468 1.468 0 0 0-.125-.14l-.06-.063a.334.334 0 0 1-.023-.037.118.118 0 0 1-.019-.057c-.006-.035-.011-.07-.063-.086-.028-.007-.05-.038-.071-.07l-.03-.04c0-.004-.005-.008-.01-.011-.005-.003-.01-.006-.01-.01.01-.07-.026-.119-.064-.169a.331.331 0 0 1-.063-.107 1.464 1.464 0 0 0-.16-.297.184.184 0 0 1-.027-.049L.3 41.713c-.005-.067-.01-.131-.081-.171 0-.092-.033-.175-.066-.258-.035-.09-.07-.18-.064-.28a.31.31 0 0 0-.066-.252c-.022-.024-.022-.072-.021-.114V39.46a.221.221 0 0 1 .023-.13.401.401 0 0 0 .064-.252.369.369 0 0 1 .076-.264c.016-.017.02-.047.023-.075a.506.506 0 0 1 .004-.024l.007-.05c.006-.056.012-.113.076-.141a.033.033 0 0 0 .011-.028c-.016-.09.025-.159.067-.229a.626.626 0 0 0 .056-.11.443.443 0 0 1 .157-.228.066.066 0 0 0 .022-.037.429.429 0 0 1 .181-.271.97.97 0 0 0 .123-.168c.085-.137.201-.253.34-.337.052-.03.1-.065.143-.105.09-.087.192-.16.303-.22.064-.024.125-.055.183-.092a.473.473 0 0 1 .188-.091.347.347 0 0 0 .08-.044.362.362 0 0 1 .079-.044.254.254 0 0 1 .047-.01c.04-.006.075-.012.096-.068 0-.02.064-.021.103-.023h8.957c.047 0 .121 0 .143.026a.334.334 0 0 0 .05.061c.041.044.083.088.061.167a.264.264 0 0 0 0 .089v6.945h.002zm27.757-7.288H35.07l-4.384.004c-.181 0-.252.067-.265.248V38.123c0 .04.002.085-.019.108a.31.31 0 0 0-.051.24v4.894l-.003.048c-.007.14-.009.161.09.279a.26.26 0 0 0 .231.133c.154-.013.308-.019.462-.016l8.308.013h.023c.033.001.07.002.078-.01.032-.061.085-.068.139-.075a.291.291 0 0 0 .076-.017 1.227 1.227 0 0 1 .297-.12l.002-.001a.026.026 0 0 0 .008-.013c.011-.049.045-.055.083-.062l.02-.004a.287.287 0 0 0 .099-.055 1.47 1.47 0 0 1 .286-.219c.122-.066.232-.154.323-.259a.923.923 0 0 0 .241-.298.556.556 0 0 1 .119-.173.58.58 0 0 0 .164-.222.349.349 0 0 1 .056-.092c.037-.05.074-.1.061-.172 0-.004.006-.008.013-.012l.007-.005a.451.451 0 0 0 .061-.089c.006-.014.009-.03.011-.046.005-.028.01-.054.025-.064.065-.039.07-.094.073-.15l.003-.03.001-.01.001-.012c.003-.031.006-.066.022-.076.063-.044.068-.101.073-.16a.84.84 0 0 1 .003-.036.21.21 0 0 1 .029-.114.4.4 0 0 0 .074-.265.601.601 0 0 0 .002-.056c0-.044 0-.089.02-.117a.428.428 0 0 0 .068-.27v-.953a.258.258 0 0 0-.023-.13.429.429 0 0 1-.063-.27c.007-.101-.028-.192-.064-.283-.035-.088-.07-.175-.064-.273a.029.029 0 0 0-.013-.025c-.055-.026-.06-.075-.065-.125l-.005-.041a.31.31 0 0 0-.032-.079l-.05-.089a4.086 4.086 0 0 1-.02-.035.219.219 0 0 1-.015-.033 1.473 1.473 0 0 0-.09-.188.34.34 0 0 0-.038-.05c-.019-.021-.038-.043-.047-.069a1.12 1.12 0 0 0-.253-.35 6.47 6.47 0 0 0-.471-.48.213.213 0 0 0-.048-.033c-.032-.018-.063-.036-.074-.079-.073-.017-.134-.063-.194-.11-.077-.058-.154-.117-.259-.117a.029.029 0 0 1-.012-.006l-.003-.002-.003-.003-.001-.002-.001-.002-.001-.002c-.011-.056-.047-.061-.085-.066l-.015-.002a.39.39 0 0 1-.107-.042l-.018-.009c-.04-.019-.088-.042-.107-.055-.01-.008-.027-.009-.041-.01-.013 0-.024 0-.029-.006-.051-.093-.133-.088-.213-.083l-.05.002zM25.68 29.045c.032-.015.063-.022.092-.029.056-.012.102-.023.125-.081.005-.012.026-.016.046-.02a.229.229 0 0 0 .021-.006.227.227 0 0 1 .04-.008c.039-.006.078-.011.09-.065 0-.013.036-.02.064-.024l.017-.003.016-.002c.034-.004.088-.01.095-.071a.045.045 0 0 1 .033-.026.579.579 0 0 0 .294-.178.047.047 0 0 1 .026-.012c.069 0 .113-.039.156-.077a.309.309 0 0 1 .097-.066.71.71 0 0 0 .143-.083c.057-.042.113-.091.168-.143a.33.33 0 0 1 .056-.044.12.12 0 0 1 .047-.015c.034-.006.067-.012.079-.065.004-.022.024-.03.047-.04.026-.011.055-.023.07-.057.02-.044.06-.069.101-.093.018-.01.037-.021.053-.034.025-.02.051-.038.077-.057.05-.037.102-.075.15-.114.044-.037.074-.064.102-.09l.058-.053.023-.02c.045-.039.089-.076.129-.123.065-.092.141-.174.227-.246.074-.042.124-.104.172-.164.036-.044.07-.087.114-.122.05-.04.088-.083.125-.125a.84.84 0 0 1 .125-.12.189.189 0 0 0 .041-.053.51.51 0 0 1 .513-.24c.023 0 .058.008.069.024.035.052.084.057.135.061l.023.003.025.003c.04.003.056.005.073.049 0 .02.044.037.07.044.082.023.137.079.193.135a.71.71 0 0 0 .111.096c.014.01.014.046.014.07V43.41a.686.686 0 0 0 0 .133c.023.102-.035.164-.093.228a1.282 1.282 0 0 1-.238.231c-.012.01-.024.022-.036.022a.261.261 0 0 0-.131.048c-.03.018-.058.035-.087.04-.078.01-.15.037-.223.064-.102.037-.204.074-.318.068a.496.496 0 0 0-.355.064.336.336 0 0 1-.189.022c-.511 0-1.024 0-1.536-.01a.223.223 0 0 1-.143-.049.254.254 0 0 0-.143-.027l-.087-.003c-.104-.002-.207-.004-.297-.08-.02-.015-.051-.016-.083-.016-.016 0-.032-.001-.047-.004l-.026-.003c-.043-.004-.101-.01-.128-.068 0-.012-.02-.027-.032-.027-.125-.006-.195-.088-.264-.17a1.042 1.042 0 0 0-.073-.08.245.245 0 0 1-.047-.143 1.03 1.03 0 0 1 0-.163v-14.2c.014-.086.026-.164.031-.241zM13.231 44.312l.857.026-.004-.015h.834a.285.285 0 0 0 .157-.031.297.297 0 0 1 .166-.05c.04-.004.079-.005.118-.007.108-.003.217-.006.322-.073.034-.022.077-.028.12-.034.066-.01.135-.02.18-.085a.25.25 0 0 0 .203-.103c.086-.072.163-.153.232-.241.024-.038.02-.095.018-.15l-.003-.054v-9.918l.003-.678c.004-.599.008-1.197-.023-1.797a17.52 17.52 0 0 1-.005-1.033c.003-.172.005-.345.005-.517 0-.054.006-.109.012-.163.006-.054.011-.109.011-.163.002-.033-.004-.096-.021-.096a.269.269 0 0 1-.08-.067c-.03-.034-.061-.068-.11-.075-.038-.006-.073-.029-.11-.052-.044-.029-.09-.058-.146-.058-.011 0-.011-.01-.011-.01a.551.551 0 0 0-.23-.155.497.497 0 0 1-.08-.053c-.055-.042-.109-.083-.186-.073-.007.002-.022-.01-.022-.018a.773.773 0 0 0-.235-.176c-.025-.017-.048-.03-.072-.044a1.61 1.61 0 0 1-.121-.08 5.475 5.475 0 0 1-.232-.177 2.5 2.5 0 0 0-.092-.07l-.035-.025-.168-.117a.573.573 0 0 1-.152-.108 1.8 1.8 0 0 0-.334-.309 2.42 2.42 0 0 1-.182-.159 14.253 14.253 0 0 1-.17-.169 5.574 5.574 0 0 0-.33-.318l-.098-.091c-.041-.038-.07-.085-.1-.132a.556.556 0 0 0-.125-.154c.003-.055-.032-.064-.066-.073-.023-.005-.046-.011-.058-.03a.168.168 0 0 0-.157-.064h-.322c-.048.001-.095.002-.118.06a.066.066 0 0 1-.049.026.376.376 0 0 0-.266.182c-.01.013-.026.023-.041.032-.02.01-.038.021-.042.037a1.051 1.051 0 0 0-.021.365c.004.04.007.08.007.12V41.113a1.862 1.862 0 0 1-.024.236 2.33 2.33 0 0 0-.039.26v1.626c0 .04-.003.078-.007.117-.012.114-.023.227.072.333.012.012.014.038.015.056l.002.015c0 .004 0 .008.002.013.001.014.003.029.01.029.04.026.074.06.108.096.065.068.13.137.241.137.01 0 .021.009.032.018l.015.012c.045.03.093.052.143.068a.502.502 0 0 1 .223.069c.04.02.083.031.127.03.08.008.149.008.223.008a.164.164 0 0 1 .096.026.155.155 0 0 0 .133.049zm7.674-14.06v13.433c0 .09-.047.136-.094.184a.453.453 0 0 0-.062.07.295.295 0 0 1-.115.094.361.361 0 0 0-.089.063c-.02.02-.053.027-.085.035a.553.553 0 0 0-.038.01l-.032.007c-.038.008-.08.017-.11.055-.02.023-.065.027-.104.03l-.021.002c-.025.003-.05.004-.075.005-.076.002-.152.005-.21.072-.018.019-.057.017-.093.016h-.024c-.124 0-.248.003-.372.008-.124.003-.248.007-.372.007-.353 0-.704-.007-1.056-.014h-.026c-.068.002-.137.003-.193-.064-.016-.02-.056-.021-.096-.022-.016 0-.032 0-.046-.003a.702.702 0 0 0-.072-.004c-.072-.002-.145-.005-.2-.076-.008-.01-.027-.012-.046-.015a.136.136 0 0 1-.038-.007 1.007 1.007 0 0 1-.11-.059.295.295 0 0 0-.059-.039c-.013-.004-.027-.006-.041-.008-.04-.006-.08-.012-.102-.073-.008-.025-.039-.047-.07-.069a.495.495 0 0 1-.038-.03.229.229 0 0 1-.087-.168v-.029c-.092-.055-.083-.134-.073-.217.002-.023.005-.046.005-.069V36.98c0-2.352-.005-4.703-.015-7.054v-.327a.223.223 0 0 1 .104-.197.437.437 0 0 1 .313-.086c.142.006.284.008.43.01l.141.001c.025 0 .058 0 .073.007.093.076.197.073.302.07.047-.002.095-.004.141.002.04.005.08.005.119.005.04 0 .08 0 .12.005a.274.274 0 0 1 .128.028c.092.05.194.075.298.073a.645.645 0 0 0 .072.003c.074 0 .148 0 .202.076 0 .009.024.01.043.01l.013.001.059.004c.092.006.184.01.26.08.015.013.041.014.067.015a.752.752 0 0 0 .07.006c.052.005.104.01.135.067a.052.052 0 0 0 .039.02c.12.013.236.049.343.106.024.014.052.018.082.021.05.007.102.013.135.073.007.012.033.016.058.019a.372.372 0 0 1 .025.004l.018.002c.03.003.072.008.093.053.012.025.066.035.102.04l.048.004c.064.002.127.005.156.092-.007.013.011.02.039.029l.031.011zm4.467 11.094v-11.91l-.052-.015a.139.139 0 0 1-.05-.018c-.037-.085-.104-.084-.172-.082h-.03l-.238.006c-.12.003-.239.006-.358.006h-.016c-.031 0-.067-.001-.084.016-.057.06-.126.058-.196.058h-.027c-.138.01-.274.01-.417.01a.296.296 0 0 0-.129.025.899.899 0 0 1-.402.083.58.58 0 0 1-.043.001c-.041.001-.084.002-.1.022-.055.066-.121.067-.187.069-.02 0-.039 0-.058.002a.319.319 0 0 0-.217.072c-.026.024-.07.026-.115.028-.03.002-.06.004-.085.012-.03.01-.057.025-.084.041-.03.018-.06.035-.092.044a.372.372 0 0 1-.082.012c-.063.005-.125.01-.165.08h-.028a.388.388 0 0 0-.193.067c-.067.038-.135.075-.217.066-.038.071-.105.076-.172.08l-.031.003a.084.084 0 0 0-.049.025 1.639 1.639 0 0 1-.057.067c-.089.101-.175.2-.113.362a.489.489 0 0 1 .007.177v3.73c0 .064.005.128.014.192.021.095.036.19.045.286.007 2.84.011 5.68.011 8.519a.44.44 0 0 0 .084.33c.017.019.032.04.047.06.057.072.111.144.213.163a.205.205 0 0 1 .042.013c.025.078.084.082.143.087a.402.402 0 0 1 .064.009c.032.007.069.014.084.035.035.045.082.05.13.053l.032.003c.018.002.038.002.058.002.045.001.09.002.113.023a.27.27 0 0 0 .206.065l.07.002c.428.01.858.021 1.286.01.06-.003.12 0 .181.002.183.007.365.014.533-.093.027-.017.066-.016.105-.015.03.001.06.002.085-.005.062-.022.122-.05.18-.081h.003a.805.805 0 0 0 .296-.135.8.8 0 0 1 .08-.075c.076-.066.155-.135.149-.258a.048.048 0 0 1 .018-.037c.078-.044.072-.106.065-.176a1.22 1.22 0 0 1-.003-.035l-.006-.076c-.005-.06-.01-.118-.01-.177v-1.529c.001-.044.002-.093-.02-.12a.252.252 0 0 1-.046-.181z" fill="url(#a)"/>
    <defs>
        <linearGradient id="a" x1="7.671" y1="-4.964" x2="48.187" y2="-.21" gradientUnits="userSpaceOnUse">
            <stop stop-color="#7054D1"/>
            <stop offset=".51" stop-color="#AB56C9"/>
            <stop offset="1" stop-color="#B275DC"/>
        </linearGradient>
    </defs>
</svg>
